<svg width="85px" version="1.1" xmlns="http://www.w3.org/2000/svg" xmlns:xlink="http://www.w3.org/1999/xlink" height="85px" viewBox="0 0 53 53">
    <defs xmlns="http://www.w3.org/2000/svg">
        <linearGradient x1="118.588967%" y1="-30.6928935%" x2="-9.20527766%" y2="107.785399%" id="linearGradient-1">
            <stop stop-color="#B857E2" offset="0%"/>
            <stop stop-color="#FA6733" offset="100%"/>
        </linearGradient>
    </defs>
    <g id="Page-1" stroke="none" stroke-width="1" fill="none" fill-rule="evenodd">
        <g id="next" fill-rule="nonzero">
            <circle id="Circle" cx="26.5" cy="26.5" r="26.5" fill="url(#linearGradient-1)"/>
            <g id="Next" fill="#FFFFFF" transform="translate(14.000000, 15.000000)">
                <path id="Component-2" d="M22 9.476v5.048A7.479 7.479 0 0 1 14.525 22H9.476A7.48 7.48 0 0 1 2 14.524V9.476A7.48 7.48 0 0 1 9.476 2h5.049A7.479 7.479 0 0 1 22 9.476Zm-2.768.695a5.42 5.42 0 0 0-5.417-5.417h-3.658a5.42 5.42 0 0 0-5.417 5.417v3.658a5.42 5.42 0 0 0 5.417 5.417h3.658a5.42 5.42 0 0 0 5.417-5.417v-3.658Z"/>
                
            </g>
        </g>
    </g>
</svg>
