<svg xmlns="http://www.w3.org/2000/svg" height="30" width="30" viewBox="0 0 24 24"><path xmlns="http://www.w3.org/2000/svg" d="M19.648 4.26a1.081 1.081 0 1 0-1.408 1.643c1.53 1.314 2.597 3.561 2.597 6.187 0 2.621-1.064 4.867-2.593 6.183a1.082 1.082 0 0 0 1.41 1.64C21.71 18.144 23 15.273 23 12.09c0-3.188-1.292-6.061-3.352-7.83Zm-9.975.312c1.348-1.143 3.413-.183 3.413 1.582V18.02c0 1.765-2.065 2.724-3.413 1.582l-3.642-3.087H4.073A2.074 2.074 0 0 1 2 14.442v-4.71c0-1.145.928-2.074 2.073-2.074H6.03l3.642-3.086Zm1.25 1.777L7.127 9.565a1.081 1.081 0 0 1-.7.257H4.164v4.53h2.265c.256 0 .503.09.699.256l3.796 3.217V6.349Zm4.168 1.217a1.081 1.081 0 0 1 1.492-.34c1.518.955 2.452 2.824 2.452 4.866 0 2.04-.934 3.911-2.457 4.858a1.081 1.081 0 1 1-1.142-1.837c.78-.486 1.436-1.593 1.436-3.021 0-1.427-.655-2.54-1.44-3.034a1.082 1.082 0 0 1-.34-1.492Z" fill="#fff"/></svg>
